<svg width="232" height="70" viewBox="0 0 232 70" fill="none" xmlns="http://www.w3.org/2000/svg">
<path d="M8.004 18.8L26.266 41.708V18.8H31.418V51H27.508L9.246 28.276V51H4.048V18.8H8.004ZM48.4272 27.862C51.8772 27.862 54.6832 29.012 56.8912 31.266C59.0992 33.52 60.2032 36.326 60.2032 39.684C60.2032 43.088 59.0992 45.94 56.9372 48.148C54.7752 50.356 51.9232 51.46 48.4272 51.46C44.9312 51.46 42.0792 50.356 39.9632 48.148C37.8012 45.94 36.7432 43.088 36.7432 39.684C36.7432 36.28 37.8012 33.474 39.9632 31.22C42.1252 29.012 44.9312 27.862 48.4272 27.862ZM48.4272 32.232C46.3112 32.232 44.6552 32.968 43.3672 34.394C42.0792 35.866 41.4812 37.614 41.4812 39.684C41.4812 41.8 42.0792 43.548 43.3672 44.928C44.6092 46.354 46.3112 47.044 48.4272 47.044C50.5432 47.044 52.1992 46.354 53.4872 44.928C54.7752 43.548 55.4192 41.8 55.4192 39.684C55.4192 37.66 54.7292 35.912 53.4412 34.44C52.1072 32.968 50.4512 32.232 48.4272 32.232ZM87.1542 41.432H68.7542C68.9382 43.18 69.7202 44.56 71.0542 45.572C72.3882 46.63 74.0902 47.136 76.1602 47.136C77.3562 47.136 78.5982 46.952 79.8402 46.492C81.0822 46.032 82.0482 45.434 82.7382 44.698L85.8202 47.688C84.6702 48.93 83.1982 49.896 81.4502 50.54C79.7022 51.23 77.9082 51.552 76.0682 51.552C72.3422 51.552 69.3522 50.494 67.1442 48.286C64.9362 46.124 63.8322 43.226 63.8322 39.546C63.8322 36.096 64.9362 33.244 67.1442 31.036C69.3522 28.828 72.2042 27.724 75.7462 27.724C79.5182 27.724 82.5082 28.92 84.6242 31.22C86.7402 33.566 87.5682 36.97 87.1542 41.432ZM68.8462 37.43H82.6002C82.4622 35.682 81.7722 34.348 80.5762 33.382C79.3802 32.462 77.8162 31.956 75.8842 31.956C74.0902 31.956 72.5722 32.462 71.2842 33.382C69.9962 34.348 69.2142 35.682 68.8462 37.43ZM82.2322 18.662H76.5282L73.1242 24.734V24.964H77.4022L82.2322 18.846V18.662ZM101.847 21.1V18.8H125.169V19.674L104.423 48.562H125.169V51H100.743V49.942L121.213 21.1H101.847ZM149.232 28.276H151.486V51H149.232V46.17C147.07 49.666 143.988 51.368 139.94 51.368C136.72 51.368 133.96 50.264 131.752 48.056C129.498 45.848 128.394 43.042 128.394 39.638C128.394 36.234 129.498 33.474 131.706 31.266C133.914 29.104 136.674 28 139.94 28C141.872 28 143.666 28.46 145.322 29.334C146.978 30.254 148.312 31.542 149.232 33.244V28.276ZM139.94 30.162C137.272 30.162 135.064 31.082 133.316 32.83C131.522 34.578 130.648 36.878 130.648 39.638C130.648 42.444 131.522 44.744 133.316 46.492C135.064 48.286 137.272 49.16 139.94 49.16C141.688 49.16 143.206 48.838 144.586 48.102C145.92 47.412 146.932 46.492 147.668 45.388C148.358 44.284 148.864 43.088 149.232 41.708C149.554 40.374 149.554 39.04 149.232 37.66C148.864 36.28 148.358 35.038 147.668 33.934C146.932 32.83 145.92 31.956 144.586 31.22C143.206 30.53 141.688 30.162 139.94 30.162ZM178.251 28.276H180.505V51H178.251V46.17C176.089 49.666 173.007 51.368 168.959 51.368C165.739 51.368 162.979 50.264 160.771 48.056C158.517 45.848 157.413 43.042 157.413 39.638C157.413 36.234 158.517 33.474 160.725 31.266C162.933 29.104 165.693 28 168.959 28C170.891 28 172.685 28.46 174.341 29.334C175.997 30.254 177.331 31.542 178.251 33.244V28.276ZM168.959 30.162C166.291 30.162 164.083 31.082 162.335 32.83C160.541 34.578 159.667 36.878 159.667 39.638C159.667 42.444 160.541 44.744 162.335 46.492C164.083 48.286 166.291 49.16 168.959 49.16C170.707 49.16 172.225 48.838 173.605 48.102C174.939 47.412 175.951 46.492 176.687 45.388C177.377 44.284 177.883 43.088 178.251 41.708C178.573 40.374 178.573 39.04 178.251 37.66C177.883 36.28 177.377 35.038 176.687 33.934C175.951 32.83 174.939 31.956 173.605 31.22C172.225 30.53 170.707 30.162 168.959 30.162ZM199.497 30.07C196.829 30.07 194.575 30.99 192.827 32.738C191.079 34.532 190.205 36.832 190.205 39.592C190.205 42.444 191.079 44.744 192.827 46.492C194.575 48.286 196.783 49.16 199.497 49.16C202.165 49.16 204.373 48.332 206.121 46.676C207.869 45.02 208.789 42.674 208.789 39.638C208.789 36.602 207.915 34.21 206.167 32.554C204.419 30.898 202.165 30.07 199.497 30.07ZM187.951 18.8H190.159V33.244C191.033 31.496 192.321 30.162 193.977 29.242C195.633 28.368 197.519 27.908 199.589 27.908C202.855 27.908 205.569 28.966 207.731 31.036C209.893 33.152 210.997 36.004 210.997 39.638C210.997 43.318 209.893 46.17 207.777 48.24C205.615 50.356 202.901 51.368 199.635 51.368C197.657 51.368 195.817 50.908 194.115 49.942C192.367 49.022 191.079 47.688 190.159 45.986V51H187.951V18.8ZM219.224 28.184V51H216.97V28.184H219.224ZM216.326 20.87C216.326 21.422 216.51 21.882 216.878 22.204C217.246 22.526 217.66 22.664 218.12 22.664C218.58 22.664 218.994 22.526 219.362 22.204C219.73 21.882 219.96 21.422 219.96 20.87C219.96 20.318 219.73 19.904 219.362 19.582C218.994 19.26 218.58 19.076 218.12 19.076C217.66 19.076 217.246 19.26 216.878 19.582C216.51 19.904 216.326 20.318 216.326 20.87Z" fill="white"/>
<rect x="226" y="45" width="6" height="6" fill="#F13024"/>
</svg>
